<svg xmlns="http://www.w3.org/2000/svg" viewBox="0 0 677 439.4"><defs><style>.cls-1{fill:#231815;}</style></defs><g id="圖層_2" data-name="圖層 2"><g id="圖層_1-2" data-name="圖層 1"><path class="cls-1" d="M248,432.72A178.12,178.12,0,0,0,255.11,408l1-4.7.37-2.2c2,1.16,4,2.26,6,3.54.73.62.24.8-1.83,1.65-1.17,1.23-1.17,1.84-1.72,3.67l-.36.92c-3.06,7.63-5.38,14-8.37,21.69l.24.24,16-.06,3.3-3.3,5,4.83H223.58a10.84,10.84,0,0,0-2.5.36l-1.9-1.89Zm-21.45-34.46a17.09,17.09,0,0,1-2.07.43l-1.9-2,40,.06,3.06-3.05,4.94,4.52Zm6,4.89a71.21,71.21,0,0,1,9.84,17.23c.49,2.56.3,5.56-1.77,7.21-.55.24-1.35.67-2,.12l-.49-1.1c-.18-8.13-2-16.07-6.35-23Zm9.72-18.27c2.87,1.28,6.59,2.5,7.69,5.5a4.46,4.46,0,0,1-1.83,4.7c-.43,0-.86.43-1.34.13-.92-2.08-.68-4.1-2-6l-.31-.43a22.84,22.84,0,0,0-2.74-3.3Z"/><path class="cls-1" d="M298.61,392l3.42,3.66c.12.25-.12.61-.43.67H285.41l-1.22.43-2.32-1.89h13.74Zm1.59,11.24c.18.3,0,.61-.37.67H286.88a7.66,7.66,0,0,0-1.1.49l-2.2-2h10.75l2.44-2.32Zm.18,8.06c.12.25-.12.49-.31.55H287.12l-1.1.43-2.2-1.89h10.57l2.45-2.39Zm-11.73,22.55v3.42c0,.73-3.3,2.14-3.3,1.28V416.83l3.6,1.84h5.87l2-1.9,2.68,2.45c.74.79-.85,1.1-1.16,2.13v11.06c4.71-4.88,9.66-14.6,10.27-23.15H303.5a2.83,2.83,0,0,0-1.1.36l-2-1.83h6.84l2.51-2.14,3,3.18c1.1,1.16-.91,1.28-1.22,2.5-.43,7-3.85,13.2-8.25,18a30.67,30.67,0,0,1-4.95,4.46V436c-.06.67-3.42,2.07-3.42,1.28v-3.42Zm5.62-44.05a3.57,3.57,0,0,1-.92,3.11c-.61.43-1.1,1.1-1.89.86-1.16-.67-.55-2.32-1.22-3.24a16.54,16.54,0,0,0-4.22-6.05.59.59,0,0,1,.25-.55,11.79,11.79,0,0,1,3.48,1.41C291.64,386.59,293.29,387.69,294.27,389.77Zm.73,30.36h-6.35v12.22H295Zm23.83,15.52c0,2-3,2.63-4.64,3.73-1.1.18-.43-1.16-.92-1.65a2.12,2.12,0,0,0-1.1-1.22l-5.19-1.9a.74.74,0,0,1-.18-.55l.3-.24a44.25,44.25,0,0,0,7.45,1.4c.55-.12.68-.61.74-1.1v-37h-6.66a5,5,0,0,0-1.53.55l-2-2h9.6l2.13-2.26,3.49,2.39c.73.73-1.29,1.22-1.41,2a19.87,19.87,0,0,0,1,5.44l1.47,5.19a27.63,27.63,0,0,0,8.37-10.32l3.79,2.93c.24.43.24.86-.49.92-2-.06-2.75,1.77-4.16,2.75a39.65,39.65,0,0,1-7.09,5.07c2.57,7.7,6.79,15.15,13.75,19.85.61.68-.92.55-1.77,1a9.71,9.71,0,0,0-1.53,2.63c-7.51-7.09-11.12-17.54-13.32-27.56Zm2-45.94a4.34,4.34,0,0,1-1.77,2.75,1.2,1.2,0,0,1-1.1-.25c-1.59-3.79-5.56-6.35-9.35-7.76a.5.5,0,0,1-.06-.55c.91-.43,2-.06,3.05-.12a16,16,0,0,1,8.49,3.18A3,3,0,0,1,320.85,389.71Z"/><path class="cls-1" d="M347.67,411.33,344.8,409c-.61-.49.79-1.22,2.26-2l8.12-13.44h-8.61a4.19,4.19,0,0,0-2.14.67l-2.14-2.14h12.77l2.32-2.08,3.67,2.81c.79.74-1.59,1.29-2.44,1.77l-8.74,13.75H355l2.38-2.14,3.61,3c.79.85-1.35.73-1.77,1.83-.86,5.74-2,11.36-4.65,16.31,8.07,8.68,20.72,7.46,32.14,6.78l10.45-.61c.18.13.55.19.36.49-1.83.92-4.76,1.28-5,3.91-9.53,0-19-.24-27.86-1.71a24.4,24.4,0,0,1-11.18-6.9A50.87,50.87,0,0,1,343,438.46l-.43-.55a34.38,34.38,0,0,0,9.47-10.69l-.18-.37a40,40,0,0,1-5.44-12c.12-.19.3-.06.49-.13,1.95,3.49,3.17,7.21,5.92,10.33,2-4.58,2.51-9.84,2.81-15.15h-6.11Zm48.14,12.16H377.18v8c0,1.52-3.42,2.44-3.42,1.4v-9.41H362.88a4.13,4.13,0,0,0-2,.61L358.73,422h15v-6h-7.64a3,3,0,0,0-1.83.61l-2.14-2.14h11.61v-6.66h-7.52a4.72,4.72,0,0,0-2.26.55l-2.08-2.08h11.86V400.4H362.88a4.2,4.2,0,0,0-2.32.55l-2.08-2.08h15.28v-5.44H367a3.37,3.37,0,0,0-2.39.68l-2.2-2.2h11.37v-8.5l5,2.14c1.28.55-.86,1.47-1.59,2v4.34h7.7l2.5-2.39,3.85,3.3c.86.74-.85,1.16-1.53,1.77v4.28h.8l3.05-3.05,4.65,4.58h-8.5v7.21c0,1.71-3.42,2.81-3.42,1.65v-1.47h-9.1v6.66h7.45l2.75-2.44,4.1,4h-14.3v6h11.67l2.69-2.63Zm-9.53-30.06h-9.1v5.44h9.1Zm0,7h-9.1v5.86h9.1Z"/><path class="cls-1" d="M429.54,395.21H407.73c-.37,0-.12,0-1.84.67l-2.26-2.14h18.52l2.81-2.69ZM427,402.78H408.83c-.19.06-.06,0-1.47.43l-2.2-2h14.36l2.87-2.75Zm-.85,7.39H408.83c-.19.13-.06,0-1.22.37l-2.2-1.89H419l2.75-2.63Zm-1.53,6.48c.67.86-1.1,1-1.34,2.26v12.77c0,.92-3.55,2.2-3.55,1.47v-3.73H411v5.13c0,.86-3.55,2.51-3.55,1.65V414.27l4.1,1.89h7.33l2.38-2.26Zm-7-25c-.68.61-1.47,1.28-2.33,1-1-1.1-.61-2.87-1.34-4.16-1-1.65-1.59-3.48-3.24-4.88a.71.71,0,0,1,.25-.62c2.81,1.1,6,2.45,7.51,5.26A3.85,3.85,0,0,1,417.63,391.6Zm2.07,26.09H411v10.2h8.73Zm27.5-10,4,3c.92.92-1.35.92-2.14,2.75a63.06,63.06,0,0,1-7.88,13.26,43.63,43.63,0,0,0,17.9,7.88c.24.61-.49.55-.86.74-2.32.18-5,.3-6.1,2.68a36.22,36.22,0,0,1-10.7-6.72L439,428.93a52.27,52.27,0,0,1-17,9c-1.46.19-3,1.28-4.52.37V438c7-2.68,13.75-5.92,19.37-11.54A48.88,48.88,0,0,1,431,411.76a4.11,4.11,0,0,0-2.33.31l-2.07-1.9h18.14ZM449.4,388c1.22,1.34-1.41,1.28-2,2.38v10.45c1.28,2.2,5.5,1.22,6.72,1,.67-.24,1.47-1.22,2.14-.18l2.57,2.32c.3.92-.74.55-1.1,1a65.19,65.19,0,0,1-10.94.18c-1-.24-2.69-1-2.93-2.32V389H436c-.3,7,.49,14.48-6.41,18.52a10.18,10.18,0,0,1-2.81,1.46.52.52,0,0,1-.25-.61c7.58-5.38,5.5-14.91,5.87-23.34l5.19,2.45H443l2.81-2.57Zm-16.93,23.7a38.44,38.44,0,0,0,6.42,12.47c2.75-3.91,5.25-7.34,6.6-12.47Z"/><path class="cls-1" d="M16.56,320.79v13.45c0,11.85.42,12.61,7.06,12.61h1.43v1.85H0v-1.85H1.43c6.72,0,7.06-.76,7.06-12.61V306.92c0-7.4,0-8.66-.92-10.17S5.63,294.9,1,294.9H0v-1.85H25.05v1.85H24c-4.62,0-5.63.34-6.47,1.85s-1,2.77-1,10.17v11H45.64v-11c0-7.4-.17-8.66-1-10.17s-1.93-1.85-6.47-1.85H36.65v-1.85H62v1.85h-.84c-4.54,0-5.63.34-6.47,1.85s-1,2.77-1,10.17v27.32c0,11.85.42,12.61,7.06,12.61H62v1.85H36.65v-1.85h1.93c6.64,0,7.06-.76,7.06-12.61V320.79Z"/><path class="cls-1" d="M99.69,292c8,0,16.39,2.86,21.6,7.48,6,5.3,8.83,12.61,8.83,22.62,0,15.8-12.78,27.57-29.84,27.57-18.49,0-30.77-11.6-30.77-29.26C69.51,303.73,82,292,99.69,292ZM82.63,338.69a17.09,17.09,0,0,0,4.45,5.13c3.62,2.61,7.82,3.87,13.28,3.87,12.86,0,20.34-9.67,20.34-26.23,0-17.82-7.31-27.4-21-27.4-13.36,0-20.76,9.42-20.76,26.73C78.93,327.68,80.36,334.49,82.63,338.69Z"/><path class="cls-1" d="M193.25,293.05h17.14v1.85h-2.1c-4.62,0-5.71.34-6.55,1.85s-.93,2.77-.93,10.17v27.32c0,11.85.42,12.61,7.06,12.61h2.52v1.85H183.75v-1.85h1.93c6.64,0,7.06-.76,7.06-12.61V298.77h-.17L170.72,348.7h-1.93l-22-49.93h-.16v32.61c0,9.16.16,10.26,2.1,12.53,1.59,1.85,3.7,2.69,6.81,2.94v1.85H135.67v-1.85c3.28-.25,5.38-1.18,7-3.2,1.76-2.27,2-3.53,2-12.52V306.92c0-7.4-.17-8.66-1-10.17s-1.93-1.85-6.47-1.85h-1.51v-1.85h16.89L173,339.11Z"/><path class="cls-1" d="M261.84,331.38l-1.18,17.32H214.6v-1.85h1.09c6.81,0,7.23-.76,7.23-12.61V306.92c0-11.35-.34-12-6.56-12h-.67v-1.85h39.84l1.26,13.87h-1.93c-1.18-5.13-2.27-7.56-4.2-9.33S246,294.9,242,294.9H230.9v23.37h5.89c7.23,0,8.4-1.09,8.4-7.65V310h1.94V329h-1.94v-.76c0-6.81-1.17-8-8.15-8H230.9V333.4c0,8.07.34,10.67,1.52,11.93s2.35,1.52,6.64,1.52h4.12c5.38,0,8.32-1,10.84-3.62,2.77-2.77,4.62-6.55,5.88-11.85Z"/><path class="cls-1" d="M345.81,315.07v1.85c-5,1.52-7.82,4.46-10.42,10.76l-.93,2.27a29.32,29.32,0,0,1-3.61,6.56l.5.76c4.63,7,7.65,8.91,11.69,8.91a6.82,6.82,0,0,0,6-3.62h1.85A10.18,10.18,0,0,1,340.77,350c-5.3,0-9.84-2.6-14.12-8-5,5.46-9.84,8-15.47,8a15.25,15.25,0,0,1-15.38-15.46,13.9,13.9,0,0,1,3.95-9.84,41.36,41.36,0,0,1,9.16-7.14l.42-.26c-3.11-4.37-4.79-8.65-4.79-12.1,0-6.05,5.21-11,11.6-11s11.51,4,11.51,9.08c0,4.2-3.69,7.65-11.26,11.93l-.59.34c6.39,8.57,7.9,10.76,13.87,19.16,2.86-4.11,5-9.33,5-12.35s-2.1-5-6.39-5.47v-1.85Zm-31.94,8.41c-2-2.86-2.27-3.11-3.28-4.45-5.8,3.61-8.91,8.23-8.91,13,0,4.38,3,9.42,7.15,12a11.25,11.25,0,0,0,6.05,1.85c3.7,0,7.48-1.93,10.59-5.54l-.25-.51-3.7-5.46-3.87-5.72Zm.84-9.5c5.72-3.28,8.24-6.47,8.24-10.34,0-4.28-2.78-7.39-6.48-7.39a6.35,6.35,0,0,0-6.72,6.72c0,2.94,1.18,5.38,4.62,10.51Z"/><path class="cls-1" d="M398.26,320.79v13.45c0,11.85.42,12.61,7.06,12.61h1.43v1.85H381.7v-1.85h1.43c6.73,0,7.06-.76,7.06-12.61V306.92c0-7.4,0-8.66-.92-10.17s-1.93-1.85-6.56-1.85h-1v-1.85h25.05v1.85h-1c-4.62,0-5.63.34-6.47,1.85s-1,2.77-1,10.17v11h29.09v-11c0-7.4-.17-8.66-1-10.17s-1.94-1.85-6.48-1.85h-1.51v-1.85h25.3v1.85h-.84c-4.54,0-5.63.34-6.47,1.85s-1,2.77-1,10.17v27.32c0,11.85.42,12.61,7.06,12.61h1.26v1.85h-25.3v-1.85h1.93c6.65,0,7.07-.76,7.07-12.61V320.79Z"/><path class="cls-1" d="M481.39,292c8,0,16.4,2.86,21.61,7.48,6,5.3,8.82,12.61,8.82,22.62,0,15.8-12.77,27.57-29.84,27.57-18.49,0-30.76-11.6-30.76-29.26C451.22,303.73,463.66,292,481.39,292Zm-17.06,46.65a17.13,17.13,0,0,0,4.46,5.13c3.61,2.61,7.81,3.87,13.28,3.87,12.86,0,20.34-9.67,20.34-26.23,0-17.82-7.31-27.4-21-27.4-13.36,0-20.76,9.42-20.76,26.73C460.63,327.68,462.06,334.49,464.33,338.69Z"/><path class="cls-1" d="M517.88,306.42l.25-13.37h54l.34,13.37h-1.77c-.67-3.87-1.68-6.73-3.11-8.74-1.68-2.36-3.11-2.78-9.49-2.78h-8.92v39.34c0,11.85.43,12.61,7.07,12.61H559v1.85H531.16v-1.85H534c6.72,0,7.14-.76,7.14-12.61V294.9h-11.6c-3.95,0-6,1.09-7.48,3.87a27.2,27.2,0,0,0-2.35,7.65Z"/><path class="cls-1" d="M624.29,331.38l-1.17,17.32H577.05v-1.85h1.1c6.8,0,7.22-.76,7.22-12.61V306.92c0-11.35-.33-12-6.55-12h-.67v-1.85H618l1.26,13.87h-1.93c-1.18-5.13-2.27-7.56-4.21-9.33s-4.62-2.69-8.66-2.69H593.36v23.37h5.88c7.23,0,8.41-1.09,8.41-7.65V310h1.93V329h-1.93v-.76c0-6.81-1.18-8-8.15-8h-6.14V333.4c0,8.07.34,10.67,1.51,11.93s2.36,1.52,6.64,1.52h4.12c5.38,0,8.32-1,10.85-3.62,2.77-2.77,4.62-6.55,5.88-11.85Z"/><path class="cls-1" d="M676.58,348.7H629.25v-1.85h1.68c6.64,0,7.06-.76,7.06-12.61V306.92c0-7.4-.08-8.66-1-10.17s-1.85-1.85-6.48-1.85h-1.26v-1.85H656v1.85h-2.44c-4.62,0-5.63.34-6.47,1.85s-1,2.77-1,10.17V336c0,7.15,0,7.65.93,8.91,1.09,1.43,2.94,1.94,7.4,1.94h4.28c6.56,0,9-.76,11.43-3.7,2.11-2.52,3.2-5.63,4.8-10.34l.16-.5H677Z"/><rect class="cls-1" x="5.69" y="412.64" width="172.84" height="2.01"/><rect class="cls-1" x="502.42" y="412.64" width="172.84" height="2.01"/><polygon class="cls-1" points="337.52 0 214.42 73.44 214.42 93.36 214.42 242.2 250.92 242.2 250.92 191.64 291.06 191.64 291.06 242.2 327.56 242.2 327.56 89.97 291.06 111.64 291.06 155.14 250.92 155.14 250.92 94.17 337.52 42.5 424.13 94.17 424.13 155.14 383.97 155.14 383.97 111.76 347.47 89.85 347.47 242.2 383.97 242.2 383.97 191.64 424.13 191.64 424.13 242.2 460.63 242.2 460.63 93.36 460.63 73.44 337.52 0"/></g></g></svg>