<svg xmlns="http://www.w3.org/2000/svg" viewBox="0 0 251.29 59.29"><g id="圖層_2" data-name="圖層 2"><g id="圖層_1-2" data-name="圖層 1"><polygon points="0 59.29 0 17.8 29.78 0 60.17 18.24 60.17 59.29 51.45 59.29 51.45 46.52 40.79 46.52 40.79 59.29 32.69 59.29 32.69 21.94 41.14 27.66 41.14 37.84 51.36 37.84 51.36 23.08 30.09 10.04 8.55 22.99 8.55 37.84 18.59 37.84 18.59 27.66 27.22 21.94 27.22 59.29 18.85 59.29 18.85 46.96 8.19 46.96 8.19 59.29 0 59.29"/><path d="M75.41,16.4H82v.78h-1.2a1.12,1.12,0,0,0-.83.22,1.92,1.92,0,0,0-.19,1.09v4.73h7V18.49a2,2,0,0,0-.18-1.1c-.12-.14-.41-.21-.86-.21H84.61V16.4h6.52v.78H89.94a1.33,1.33,0,0,0-.63.11.79.79,0,0,0-.29.4,3.24,3.24,0,0,0-.07.92V29.66a2,2,0,0,0,.14,1,1.17,1.17,0,0,0,1,.35h1v.78H84.61V31h1.12a1,1,0,0,0,.91-.36,2.37,2.37,0,0,0,.13-1V24.24h-7v5.42a2,2,0,0,0,.13,1,1,1,0,0,0,.89.34H82v.78H75.41V31h1.26a1,1,0,0,0,.53-.13.84.84,0,0,0,.29-.39,4.6,4.6,0,0,0,.05-.88V18.49a2,2,0,0,0-.19-1.09,1.13,1.13,0,0,0-.84-.22h-1.1Z"/><path d="M100.28,16.08a7,7,0,0,1,3.64,1A7.07,7.07,0,0,1,106.58,20a8.74,8.74,0,0,1,1,4.13,8.84,8.84,0,0,1-1,4.14,7.24,7.24,0,0,1-2.65,2.88,6.76,6.76,0,0,1-3.58,1,6.41,6.41,0,0,1-3.47-1,7.25,7.25,0,0,1-2.6-2.89,8.87,8.87,0,0,1-1-4.19,8.62,8.62,0,0,1,1-4.08,7.2,7.2,0,0,1,2.6-2.86A6.36,6.36,0,0,1,100.28,16.08Zm.16.8a3.91,3.91,0,0,0-3.28,1.68Q95.9,20.24,95.9,24q0,4.13,1.29,5.71a4,4,0,0,0,3.19,1.58,3.91,3.91,0,0,0,2.34-.72,4.84,4.84,0,0,0,1.6-2.28,11.55,11.55,0,0,0,.6-4.09,13.33,13.33,0,0,0-.56-4.32,4.78,4.78,0,0,0-1.6-2.3A3.93,3.93,0,0,0,100.44,16.88Z"/><path d="M109,16.4h5.12l4.59,12.13L123,16.4h5.23v.78h-1.28a1.43,1.43,0,0,0-.91.2.87.87,0,0,0-.23.68V30.22a.65.65,0,0,0,.28.57,1.75,1.75,0,0,0,1,.19h1.18v.78h-7V31h1.31a1.33,1.33,0,0,0,.83-.21.67.67,0,0,0,.28-.55v-13l-5.08,14.58h-.7l-5.47-14.52V28.41a3.39,3.39,0,0,0,.25,1.49,1.74,1.74,0,0,0,.71.76,3.77,3.77,0,0,0,1.53.32v.78H109V31a2.94,2.94,0,0,0,1.93-.61,2.61,2.61,0,0,0,.51-1.84V17.94a.67.67,0,0,0-.24-.58,1.53,1.53,0,0,0-.89-.18H109Z"/><path d="M130.15,16.4h12.17l.29,5.18h-.69a7,7,0,0,0-1.31-3.43,3,3,0,0,0-2.34-1h-3a.69.69,0,0,0-.55.2.86.86,0,0,0-.19.6v5.47h1.32a2.15,2.15,0,0,0,1.71-.76,3.62,3.62,0,0,0,.71-2.32H139v7.11h-.72a4,4,0,0,0-.72-2.53,2.28,2.28,0,0,0-1.82-.76h-1.2V30.3a.62.62,0,0,0,.23.51,1.24,1.24,0,0,0,.74.17h2.37c2.58,0,4.07-1.64,4.46-4.94h.75l-.26,5.72H130.15V31h1a1.33,1.33,0,0,0,.86-.21.76.76,0,0,0,.25-.62V18a.75.75,0,0,0-.22-.6.94.94,0,0,0-.68-.2h-1.26Z"/><path d="M157.33,22.91c.9,1.53,1.59,2.64,2.07,3.34s1,1.38,1.56,2.05A5.84,5.84,0,0,0,162.59,25a1.1,1.1,0,0,0-.41-.9,1.88,1.88,0,0,0-1.21-.34h-.55v-.71h5.77v.71h-.43a2.27,2.27,0,0,0-.93.17,2.1,2.1,0,0,0-.67.51,6.14,6.14,0,0,0-.74,1.29,16.29,16.29,0,0,1-1.9,3.16A3.88,3.88,0,0,0,164,30.36a1.36,1.36,0,0,0,1.08-.51,3.38,3.38,0,0,0,.57-1.76h.66a4.54,4.54,0,0,1-.84,3,2.63,2.63,0,0,1-2.11,1,3.31,3.31,0,0,1-1.46-.36,8,8,0,0,1-1.79-1.32A8.55,8.55,0,0,1,158,31.69a5.67,5.67,0,0,1-2,.36,4.45,4.45,0,0,1-3.24-1.25,4.36,4.36,0,0,1-.47-5.64,8.28,8.28,0,0,1,2.93-2.25,8,8,0,0,1-1-3.37,3.35,3.35,0,0,1,1.06-2.5,3.64,3.64,0,0,1,2.61-1,3.4,3.4,0,0,1,2.33.76,2.57,2.57,0,0,1,.85,2,3.37,3.37,0,0,1-.81,2.18A8.11,8.11,0,0,1,157.33,22.91Zm-1.81.81c-1.47.81-2.2,1.78-2.2,2.92a4.83,4.83,0,0,0,1,2.75,3,3,0,0,0,2.55,1.44,4.35,4.35,0,0,0,2.65-1,27.87,27.87,0,0,1-1.81-2.39C157.21,26.61,156.46,25.38,155.52,23.72Zm1.42-1.61a5.06,5.06,0,0,0,2.06-1.4,2.86,2.86,0,0,0,.56-1.78,2.18,2.18,0,0,0-.52-1.54,1.66,1.66,0,0,0-1.31-.58,1.75,1.75,0,0,0-1.31.55,2,2,0,0,0-.52,1.45A7.55,7.55,0,0,0,156.94,22.11Z"/><path d="M174.28,16.4h6.56v.78h-1.2a1.1,1.1,0,0,0-.83.22,1.92,1.92,0,0,0-.19,1.09v4.73h7V18.49a2,2,0,0,0-.18-1.1c-.12-.14-.41-.21-.86-.21h-1.12V16.4H190v.78h-1.19a1.33,1.33,0,0,0-.63.11.86.86,0,0,0-.3.4,3.93,3.93,0,0,0-.06.92V29.66a2,2,0,0,0,.14,1,1.16,1.16,0,0,0,1,.35H190v.78h-6.52V31h1.12a1,1,0,0,0,.9-.36,2.32,2.32,0,0,0,.14-1V24.24h-7v5.42a2.25,2.25,0,0,0,.12,1,1.06,1.06,0,0,0,.9.34h1.2v.78h-6.56V31h1.25a.93.93,0,0,0,.53-.13.78.78,0,0,0,.29-.39,3.61,3.61,0,0,0,.06-.88V18.49a1.89,1.89,0,0,0-.2-1.09,1.1,1.1,0,0,0-.83-.22h-1.1Z"/><path d="M199.14,16.08a6.93,6.93,0,0,1,3.64,1A7,7,0,0,1,205.44,20a8.74,8.74,0,0,1,1,4.13,8.83,8.83,0,0,1-1,4.14,7.26,7.26,0,0,1-2.66,2.88,6.7,6.7,0,0,1-3.57,1,6.38,6.38,0,0,1-3.47-1,7.34,7.34,0,0,1-2.61-2.89,9,9,0,0,1-1-4.19A8.73,8.73,0,0,1,193.1,20a7.22,7.22,0,0,1,2.61-2.86A6.35,6.35,0,0,1,199.14,16.08Zm.17.8A3.9,3.9,0,0,0,196,18.56q-1.26,1.68-1.26,5.48,0,4.13,1.29,5.71a4,4,0,0,0,3.19,1.58,3.9,3.9,0,0,0,2.33-.72,4.78,4.78,0,0,0,1.61-2.28,11.55,11.55,0,0,0,.6-4.09,13.33,13.33,0,0,0-.56-4.32,4.78,4.78,0,0,0-1.6-2.3A4,4,0,0,0,199.31,16.88Z"/><path d="M208.48,16.4H221l.3,5.81h-.72c-.47-3.42-1.71-5.13-3.7-5.13a1.22,1.22,0,0,0-.83.21.91.91,0,0,0-.23.69V30.26a.7.7,0,0,0,.22.55,1.23,1.23,0,0,0,.72.17h1.55v.78h-7.14V31h1.77a.81.81,0,0,0,.54-.17.64.64,0,0,0,.18-.47V17.88a.72.72,0,0,0-.24-.59,1.13,1.13,0,0,0-.76-.21,3,3,0,0,0-2.52,1.43,8.69,8.69,0,0,0-1.19,3.7h-.76Z"/><path d="M223.13,16.4H235.3l.29,5.18h-.69a6.91,6.91,0,0,0-1.32-3.43,3,3,0,0,0-2.33-1h-3a.69.69,0,0,0-.55.2.82.82,0,0,0-.19.6v5.47h1.32a2.15,2.15,0,0,0,1.71-.76,3.62,3.62,0,0,0,.71-2.32H232v7.11h-.72a4,4,0,0,0-.72-2.53,2.28,2.28,0,0,0-1.82-.76h-1.2V30.3a.64.64,0,0,0,.22.51,1.3,1.3,0,0,0,.75.17h2.37c2.58,0,4.07-1.64,4.46-4.94h.75l-.26,5.72H223.13V31h1.05a1.35,1.35,0,0,0,.86-.21.76.76,0,0,0,.25-.62V18a.75.75,0,0,0-.22-.6,1,1,0,0,0-.69-.2h-1.25Z"/><path d="M237.76,16.4h7.13v.78h-1.7a.78.78,0,0,0-.6.21,1,1,0,0,0-.19.67V30.18a.73.73,0,0,0,.24.62,1.8,1.8,0,0,0,1,.18h2.16a3.71,3.71,0,0,0,2.81-1.14,7.87,7.87,0,0,0,1.6-4h.72l-.35,5.91h-12.8V31H239a1.31,1.31,0,0,0,.9-.24,1,1,0,0,0,.26-.79V18a.75.75,0,0,0-.21-.58.91.91,0,0,0-.65-.2h-1.56Z"/><path d="M141.34,43.28a11.5,11.5,0,0,1,1.49.6.39.39,0,0,1,.12.24c0,.12-.11.21-.31.25a3.9,3.9,0,0,1-.54.06c-.21,1.22-.47,2.37-.76,3.48s-.57,2-.86,2.86-.63,1.5-1,2.26h4l.91-1.06,1.28,1a.28.28,0,0,1,.15.23.23.23,0,0,1-.26.25H131.84q-1.14,0-1.56.06l-.31-.71a6.69,6.69,0,0,0,1.87.21h7.21c.34-.9.64-1.74.89-2.5s.41-1.52.62-2.39.35-1.71.5-2.49S141.26,44.15,141.34,43.28Zm-4.94-3.92a10.72,10.72,0,0,1,.91.83,4.94,4.94,0,0,1,.72.75,2.33,2.33,0,0,1,.4.65,1.22,1.22,0,0,1,.11.52,1.47,1.47,0,0,1-.09.55c0,.06-.06.09-.08.1h4.33l.83-1c.46.32.88.65,1.29,1,.09.06.14.12.14.2s-.08.27-.24.27H132.49c-.76,0-1.28,0-1.55.07l-.34-.72a6.85,6.85,0,0,0,1.89.2h5.34a1,1,0,0,1-.16-.46,3.87,3.87,0,0,0-.34-.95,5.71,5.71,0,0,0-.49-.88,5.27,5.27,0,0,0-.72-.91Zm-2.42,4A33.12,33.12,0,0,1,135.1,47a23.87,23.87,0,0,1,.59,3,20.34,20.34,0,0,1,.17,2.16c0,.57-.17.86-.52.86s-.43-.21-.43-.65a28.29,28.29,0,0,0-.15-3.34,15.25,15.25,0,0,0-.33-2.52,27.83,27.83,0,0,0-.69-3Z"/><path d="M148.23,39.43q.48.33.84.63a3.17,3.17,0,0,1,.68.59,1.27,1.27,0,0,1,.39.49.76.76,0,0,1,.1.37,1.09,1.09,0,0,1-.1.52.29.29,0,0,1-.16.13h1.15l.72-.72q.54.39,1,.75c.09.06.13.11.13.16s-.07.28-.21.28h-4.29a15,15,0,0,0-1.56.07L146.6,42a7.81,7.81,0,0,0,1.87.18h1.12l0,0c-.07,0-.12-.15-.16-.37a4.08,4.08,0,0,0-.33-.75,5,5,0,0,0-.45-.68,6.59,6.59,0,0,0-.65-.72Zm-1.12,4.81a7.34,7.34,0,0,0,1.88.19h1.77l.63-.65c.34.24.65.47,1,.7a.21.21,0,0,1,.11.16c0,.18-.06.26-.19.26H149c-.76,0-1.27,0-1.54.05Zm0,2.34a6.81,6.81,0,0,0,1.88.21h1.77l.63-.65c.34.23.65.45,1,.68a.19.19,0,0,1,.11.16c0,.17-.06.25-.19.25H149c-.76,0-1.27,0-1.54.06Zm.27,2,1,.52h2.49l.43-.52q.87.52.87.72c0,.12-.16.27-.46.45v2.67l.36.27c.06,0,.1.07.1.12s0,.27-.15.27h-3.82v.52a.25.25,0,0,1-.19.23,1.76,1.76,0,0,1-.39.08c-.13,0-.2-.06-.2-.18Zm.78,4h2.73v-3h-2.73Zm4.16-7a9.2,9.2,0,0,0,1.8.13h.72l.52-.52a3.4,3.4,0,0,1,.81.64.2.2,0,0,1,.11.16c0,.06-.07.14-.22.23a1.46,1.46,0,0,1-.36.14,17.58,17.58,0,0,1-1,2.59,12,12,0,0,1-1,1.7,10.66,10.66,0,0,1-1.31,1.5l-.26-.26a11.34,11.34,0,0,0,1.26-1.69,10.15,10.15,0,0,0,.78-1.66,20.47,20.47,0,0,0,.75-2.36h-.8a10.54,10.54,0,0,0-1.56.07Zm1-2.73a9.6,9.6,0,0,0,1.84.13h1.3l.52-.71a3.76,3.76,0,0,1,.84.7.29.29,0,0,1,.13.22c0,.09-.17.23-.53.43.25,1.12.47,2,.68,2.69l.2.59c.31-.22.59-.42.82-.6a6.6,6.6,0,0,0,.77-.73c.22-.24.43-.49.62-.73a3.74,3.74,0,0,0,.42-.74q1.23.77,1.23,1c0,.14-.1.21-.31.21a2,2,0,0,1-.52-.08,10.62,10.62,0,0,1-1,.85c-.33.24-.66.45-1,.65l-.93.49a13.4,13.4,0,0,0,.54,1.25A9.7,9.7,0,0,0,160,50.2a5.43,5.43,0,0,0,1.26,1.36,3.51,3.51,0,0,0,1.14.75v.2c-.65,0-1,.19-1.15.58A6.23,6.23,0,0,1,160,51.58a10.87,10.87,0,0,1-1.22-2.06,15,15,0,0,1-1-2.67q-.25-.84-.45-1.8v8a1.3,1.3,0,0,1-.23.83,1.57,1.57,0,0,1-.57.42,1.17,1.17,0,0,1-.57.18,1,1,0,0,0-.11-.56,1.15,1.15,0,0,0-.47-.35,2.74,2.74,0,0,0-.83-.21V53a5.39,5.39,0,0,0,1.54.26.63.63,0,0,0,.43-.1c.07,0,.11-.2.11-.43V43.47h-1.43a13.76,13.76,0,0,0-1.56.05Zm1.43-3.31a15.87,15.87,0,0,1,1.73.47,9.28,9.28,0,0,1,1.26.49,2.65,2.65,0,0,1,.57.37,2,2,0,0,1,.29.31.44.44,0,0,1,.07.24c0,.22-.09.33-.26.33a.4.4,0,0,1-.24-.1,1.12,1.12,0,0,1-.36-.24l-.65-.44c-.26-.14-.57-.29-.93-.44a11,11,0,0,0-1.61-.71Z"/><path d="M163.43,40.42a9.39,9.39,0,0,0,1.81.13h1.44l.57-.52a5.31,5.31,0,0,1,.76.72.24.24,0,0,1,.1.17c0,.13-.09.24-.27.31a2.86,2.86,0,0,1-.52.17,41.69,41.69,0,0,1-2,4h2.08l.44-.58a3.57,3.57,0,0,1,.74.6.24.24,0,0,1,.1.16.36.36,0,0,1-.18.21,1.32,1.32,0,0,1-.32.2,18.6,18.6,0,0,1-.6,2.65,16.14,16.14,0,0,1-.9,2.13,3.14,3.14,0,0,1-.26.45,6,6,0,0,0,.8.67,5.21,5.21,0,0,0,1.44.76,9.83,9.83,0,0,0,2.07.41,20.13,20.13,0,0,0,3.08.19c.86,0,1.72,0,2.59-.1s1.71-.17,2.48-.27v.32a.89.89,0,0,0-.83.7c-1.18,0-2.31.07-3.39.07a24.94,24.94,0,0,1-4.14-.25,8.23,8.23,0,0,1-2.28-.55,7,7,0,0,1-1.54-1,5,5,0,0,1-.52-.51,10.82,10.82,0,0,1-.72,1,9.81,9.81,0,0,1-1.78,1.82l-.25-.19a10.14,10.14,0,0,0,1.51-1.68,8.36,8.36,0,0,0,.88-1.39,8.88,8.88,0,0,1-.5-.75,8.09,8.09,0,0,1-1.06-2.23l.41-.13a13.53,13.53,0,0,0,1.2,2.44,1.81,1.81,0,0,0,.18.23l0,0a15.29,15.29,0,0,0,.89-2.43,9.47,9.47,0,0,0,.5-2.5h-2.4A.94.94,0,0,1,165,46a.56.56,0,0,1-.46.19c-.25,0-.37-.06-.37-.19a.6.6,0,0,1,.06-.24,2.74,2.74,0,0,0,.3-.43A39.87,39.87,0,0,0,166.68,41h-1.44a11,11,0,0,0-1.56.06Zm5.9.72a10.34,10.34,0,0,0,1.84.13h1.3v-.59a10.38,10.38,0,0,0-.07-1.32,6.63,6.63,0,0,1,1.53.36c.14.07.21.15.21.25s-.07.15-.21.19a1.79,1.79,0,0,1-.68.18v.93h2.66l.44-.52c.57.33.86.56.86.69s-.16.28-.47.48v1.42h.47l.71-.71c.34.25.66.5,1,.75.07,0,.11.09.11.14s-.06.26-.19.26h-2.08v1.5l.39.29a.11.11,0,0,1,.08.1c0,.17,0,.26-.13.26h-3.83v1.7h2.38l.72-.78c.37.26.72.53,1.05.8a.19.19,0,0,1,.12.16c0,.19-.06.28-.18.28h-4.09v1.74h3.37l.78-.83c.39.29.76.57,1.09.84q.15.09.15.18c0,.19-.07.28-.21.28h-5.18v1c0,.26,0,.43,0,.51a4.4,4.4,0,0,1,0,.48.45.45,0,0,1-.52.51c-.24,0-.37-.09-.37-.26s0-.52,0-.88,0-.72,0-1V50.3h-2.62c-.76,0-1.27,0-1.54.06l-.34-.71a7.9,7.9,0,0,0,1.88.18h2.62V48.09h-1.84c-.76,0-1.27,0-1.54.06l-.33-.71a7.26,7.26,0,0,0,1.87.19h1.84v-1.7h-1.3c-.77,0-1.29,0-1.56.08l-.34-.72a7.4,7.4,0,0,0,1.9.2h1.3V43.78h-2.28c-.77,0-1.29,0-1.57.07l-.31-.72a6.72,6.72,0,0,0,1.88.21h2.28V41.7h-1.3a10.13,10.13,0,0,0-1.56.07Zm3.92.56v1.64H176V41.7Zm0,2.08v1.71H176V43.78Z"/><path d="M181.5,39.43a8.37,8.37,0,0,1,.88.62,3,3,0,0,1,.69.55,1.38,1.38,0,0,1,.41.47.79.79,0,0,1,.1.37,1.09,1.09,0,0,1-.1.52.34.34,0,0,1-.08.09h1.14l.71-.72q.52.38,1,.75c.09,0,.13.09.13.14s-.06.28-.19.28h-4.44q-1.14,0-1.56.06l-.31-.71a7.2,7.2,0,0,0,1.87.2h1.11a1,1,0,0,1-.13-.33,3.12,3.12,0,0,0-.33-.73,7.37,7.37,0,0,0-.47-.67,8.49,8.49,0,0,0-.68-.7Zm-1.12,4.81a7.34,7.34,0,0,0,1.88.19h1.63l.71-.71,1,.75c.09.05.13.11.13.17s-.06.26-.19.26h-3.27c-.76,0-1.27,0-1.54.05Zm0,2.21a6.81,6.81,0,0,0,1.88.21h1.5l.71-.73c.36.26.69.51,1,.76a.18.18,0,0,1,.13.16c0,.17-.06.25-.19.25h-3.14c-.76,0-1.27,0-1.54.06Zm.27,2.14,1,.52h2.62l.44-.52c.57.35.86.59.86.72s-.16.27-.47.45v2.78l.37.29c.06.05.1.09.1.13s-.05.26-.13.26h-4v.46c0,.09-.06.17-.19.22a1.43,1.43,0,0,1-.39.09c-.13,0-.2-.06-.2-.18Zm.78,4.16h2.86V49.58h-2.86Zm5.25-6.09a9.37,9.37,0,0,0,1.82.13h4.05l.65-.59c.36.27.66.52.89.73a.29.29,0,0,1,.13.23c0,.07-.08.15-.25.25a2.09,2.09,0,0,1-.6.22,16.15,16.15,0,0,1-1.52,2.73,11.6,11.6,0,0,1-.88,1.16,2.46,2.46,0,0,0,.34.22,13,13,0,0,0,1.87,1,16.89,16.89,0,0,0,2.53.7v.28a1.15,1.15,0,0,0-1,.57,17.15,17.15,0,0,1-2.37-1,8.38,8.38,0,0,1-1.73-1l-.26-.23A9.92,9.92,0,0,1,189,53a13,13,0,0,1-1.87.93,11.11,11.11,0,0,1-2.24.72l-.07-.25a11.86,11.86,0,0,0,2.29-.91c.47-.22,1.05-.53,1.76-.94a11.34,11.34,0,0,0,1.09-.88,9.44,9.44,0,0,1-.72-.81,8.36,8.36,0,0,1-1.2-1.93,5.51,5.51,0,0,1-.52-1.68,3.37,3.37,0,0,0-.55,0Zm1.37-7.23,1,.71h2.15l.65-.65.9.7q.12.08.12.15a.27.27,0,0,1,0,.11.05.05,0,0,1,0,0,.24.24,0,0,1-.16.21l-.41.16v2.55a6,6,0,0,0,0,.71.66.66,0,0,0,.17.28.46.46,0,0,0,.35.15,2.2,2.2,0,0,0,.64.09,3.49,3.49,0,0,0,.65-.06.93.93,0,0,0,.43-.18.54.54,0,0,1,.25-.1.75.75,0,0,1,.42.13.6.6,0,0,1,.16.41.2.2,0,0,1,0,.11.21.21,0,0,1-.13.13,2.34,2.34,0,0,1-.52.12,6.6,6.6,0,0,1-1.06.09,5.93,5.93,0,0,1-1.13-.09,1.22,1.22,0,0,1-.47-.13.84.84,0,0,1-.3-.25,1.46,1.46,0,0,1-.21-.47,4,4,0,0,1,0-.7v-3h-2.64a7.78,7.78,0,0,1-.18,1.77,5.67,5.67,0,0,1-.49,1.46,3.67,3.67,0,0,1-.71,1,7.05,7.05,0,0,1-1.56,1.2l-.25-.27a4.77,4.77,0,0,0,1.14-1,5.32,5.32,0,0,0,.67-1.09,6.11,6.11,0,0,0,.42-1.48,10.07,10.07,0,0,0,.16-1.56C188.1,40.23,188.08,39.81,188.05,39.43Zm-.18,7.8a5.68,5.68,0,0,0,.73,1.7,7.59,7.59,0,0,0,1.2,1.66,6,6,0,0,0,.68.57,10.84,10.84,0,0,0,1.12-1.64,8.53,8.53,0,0,0,1.06-2.29h-4.79Z"/><rect x="74.41" y="46.64" width="47.26" height="0.33"/><rect x="204.03" y="46.64" width="47.26" height="0.33"/></g></g></svg>